<svg width="20" height="49" viewBox="0 0 20 49" fill="none" xmlns="http://www.w3.org/2000/svg">
<path fill-rule="evenodd" clip-rule="evenodd" d="M5.49523 31.004C5.76529 31.0682 6.04299 31.1004 6.32831 31.1004C6.55486 31.1004 6.773 31.0782 6.98275 31.0339C7.29583 31.0924 7.60892 31.2364 7.922 31.466C8.35133 31.7647 8.71067 32.25 9 32.922C9.29867 33.594 9.448 34.4853 9.448 35.596C9.448 36.7347 9.33133 37.6447 9.098 38.326C8.86467 39.0073 8.566 39.4973 8.202 39.796C7.838 40.0947 7.45533 40.244 7.054 40.244H5.374V31.004H5.49523ZM4.114 30.3471C3.26845 29.7212 2.51555 28.7053 1.85531 27.2994C0.665313 24.7654 0.0703125 21.0064 0.0703125 16.0224C0.0703125 14.2444 0.196313 12.4664 0.448313 10.6884C0.714313 8.89636 1.11331 7.25836 1.64531 5.77436C2.17731 4.27636 2.84231 3.07936 3.64031 2.18336C4.45231 1.27336 5.39731 0.818359 6.47531 0.818359C7.20331 0.818359 7.82631 1.08436 8.34431 1.61636C8.87631 2.14836 9.27531 2.82036 9.54131 3.63236C9.82131 4.44436 9.96131 5.27736 9.96131 6.13136C9.96131 6.74736 9.87731 7.18136 9.70931 7.43336C9.54131 7.68536 9.30331 7.81136 8.99531 7.81136C8.65931 7.81136 8.40731 7.69236 8.23931 7.45436C8.07131 7.21636 7.98731 6.85936 7.98731 6.38336C7.98731 6.08936 8.02231 5.83036 8.09231 5.60636C8.16231 5.36836 8.23231 5.10936 8.30231 4.82936C8.37231 4.54936 8.40731 4.18536 8.40731 3.73736C8.40731 3.20536 8.23931 2.76436 7.90331 2.41436C7.58131 2.05036 7.20331 1.86836 6.76931 1.86836C6.15331 1.86836 5.59331 2.16936 5.08931 2.77136C4.59931 3.35936 4.16531 4.15736 3.78731 5.16536C3.40931 6.15936 3.09431 7.27236 2.84231 8.50436C2.60431 9.73636 2.41531 11.0034 2.27531 12.3054C2.14931 13.5934 2.08631 14.8184 2.08631 15.9804C2.08631 17.6744 2.15631 19.2494 2.29631 20.7054C2.45031 22.1614 2.66031 23.4634 2.92631 24.6114C3.19231 25.7594 3.50731 26.7464 3.87131 27.5724C3.95055 27.7491 4.03145 27.9169 4.114 28.0758V22.156H2.798V21.4H6.704C7.18933 21.4 7.64667 21.484 8.076 21.652C8.50533 21.8107 8.88333 22.0673 9.21 22.422C9.53667 22.7673 9.79333 23.22 9.98 23.78C10.176 24.3307 10.274 24.9933 10.274 25.768C10.274 26.1641 10.2552 26.5353 10.2177 26.8814L10.4443 26.9844C10.3116 27.3908 10.1494 27.7873 9.95777 28.1741C9.83205 28.5862 9.67612 28.9462 9.49 29.254C9.24733 29.646 8.972 29.954 8.664 30.178C8.51881 30.2836 8.37051 30.3716 8.21909 30.4419C8.19796 30.4586 8.1767 30.475 8.15531 30.4914C8.08788 30.5428 8.01922 30.591 7.94931 30.636C8.21286 30.679 8.47909 30.7783 8.748 30.934C9.112 31.13 9.448 31.4333 9.756 31.844C10.064 32.2453 10.3113 32.7587 10.498 33.384C10.694 34.0093 10.792 34.7513 10.792 35.61C10.792 36.7487 10.6427 37.7193 10.344 38.522C10.0453 39.3247 9.63467 39.9407 9.112 40.37C8.58933 40.79 7.98267 41 7.292 41H2.798V40.244H4.114V30.3471ZM8.46052 28.8589C8.52345 28.7175 8.58195 28.5645 8.636 28.4C8.86 27.7467 8.972 26.8693 8.972 25.768C8.972 24.7507 8.85533 23.9853 8.622 23.472C8.38867 22.9493 8.09 22.5993 7.726 22.422C7.37133 22.2447 7.012 22.156 6.648 22.156H5.374V29.6923C5.73126 29.945 6.10536 30.0714 6.49631 30.0714C7.04231 30.0714 7.51831 29.8754 7.92431 29.4834C8.12115 29.2933 8.29988 29.0852 8.46052 28.8589ZM13.0543 47.622C13.2596 47.8927 13.5303 48.028 13.8663 48.028C14.137 48.028 14.361 47.9393 14.5383 47.762C14.725 47.5847 14.879 47.3327 15.0003 47.006C15.1216 46.6793 15.2243 46.2873 15.3083 45.83L16.2323 41.098L18.7523 27.098H19.8583V26.342H16.8623V27.098H17.9123L16.1623 37.248L14.3563 27.098H15.3923V26.342H11.8643V27.098H13.0123L15.5463 40.706L14.6083 45.62C14.5523 45.9467 14.4916 46.2453 14.4263 46.516C14.361 46.7867 14.2863 47.0013 14.2023 47.16C14.1183 47.3187 14.011 47.398 13.8803 47.398C13.703 47.398 13.5723 47.2813 13.4883 47.048C13.4136 46.8147 13.3763 46.558 13.3763 46.278C13.3763 46.0727 13.3996 45.8953 13.4463 45.746C13.5023 45.5967 13.5536 45.4473 13.6003 45.298C13.6563 45.158 13.6843 44.9947 13.6843 44.808C13.6843 44.5467 13.6376 44.332 13.5443 44.164C13.451 43.996 13.2923 43.912 13.0683 43.912C12.863 43.912 12.709 44.0053 12.6063 44.192C12.5036 44.3787 12.4523 44.64 12.4523 44.976C12.4523 45.564 12.499 46.0867 12.5923 46.544C12.695 47.0013 12.849 47.3607 13.0543 47.622Z" fill="black"/>
</svg>
